HIERARCHY
ROOT hip
{
  OFFSET 5.70873 43.8894 -1.52928
  CHANNELS 6 Xposition Yposition Zposition Zrotation Xrotation Yrotation
  JOINT abdomen
  {
    OFFSET 0 5.99393 0.287273
    CHANNELS 6 Xposition Yposition Zposition Zrotation Xrotation Yrotation
    JOINT chest
    {
      OFFSET 0 6.65865 -0.856112
      CHANNELS 6 Xposition Yposition Zposition Zrotation Xrotation Yrotation
      JOINT neck
      {
        OFFSET 0 8.65624 -1.42685
        CHANNELS 6 Xposition Yposition Zposition Zrotation Xrotation Yrotation
        JOINT head
        {
          OFFSET 0 3.80999 -0.190247
          CHANNELS 6 Xposition Yposition Zposition Zrotation Xrotation Yrotation
          End Site
          {
            OFFSET 0 0 0
          }
        }
      }
      JOINT rCollar
      {
        OFFSET -1.4963 7.5744 -1.52136
        CHANNELS 6 Xposition Yposition Zposition Zrotation Xrotation Yrotation
        JOINT rShldr
        {
          OFFSET -5.47506 -0.905672 0.485692
          CHANNELS 6 Xposition Yposition Zposition Zrotation Xrotation Yrotation
          JOINT rForeArm
          {
            OFFSET -11.3069 -0.201091 0.618544
            CHANNELS 6 Xposition Yposition Zposition Zrotation Xrotation Yrotation
            JOINT rHand
            {
              OFFSET -9.61414 -0.254739 3.48553
              CHANNELS 6 Xposition Yposition Zposition Zrotation Xrotation Yrotation
              JOINT rThumb1
              {
                OFFSET 0.176263 -0.07068 1.26622
                CHANNELS 6 Xposition Yposition Zposition Zrotation Xrotation Yrotation
                JOINT rThumb2
                {
                  OFFSET -1.04683 -0.546484 1.82182
                  CHANNELS 6 Xposition Yposition Zposition Zrotation Xrotation Yrotation
                  JOINT rThumb3
                  {
                    OFFSET -0.993472 -0.621916 0.655506
                    CHANNELS 6 Xposition Yposition Zposition Zrotation Xrotation Yrotation
                    End Site
                    {
                      OFFSET -0.996134 -0.66263 0.644615
                    }
                  }
                }
              }
              JOINT rIndex1
              {
                OFFSET -2.64253 0.566363 2.4162
                CHANNELS 6 Xposition Yposition Zposition Zrotation Xrotation Yrotation
                JOINT rIndex2
                {
                  OFFSET -1.39394 -0.635138 0.899356
                  CHANNELS 6 Xposition Yposition Zposition Zrotation Xrotation Yrotation
                  JOINT rIndex3
                  {
                    OFFSET -0.622395 -0.856016 0.402182
                    CHANNELS 6 Xposition Yposition Zposition Zrotation Xrotation Yrotation
                    End Site
                    {
                      OFFSET -0.472476 -0.801802 0.34216
                    }
                  }
                }
              }
              JOINT rMid1
              {
                OFFSET -3.20814 0.514427 1.52547
                CHANNELS 6 Xposition Yposition Zposition Zrotation Xrotation Yrotation
                JOINT rMid2
                {
                  OFFSET -1.56545 -0.497974 0.68919
                  CHANNELS 6 Xposition Yposition Zposition Zrotation Xrotation Yrotation
                  JOINT rMid3
                  {
                    OFFSET -0.679943 -1.17582 0.444246
                    CHANNELS 6 Xposition Yposition Zposition Zrotation Xrotation Yrotation
                    End Site
                    {
                      OFFSET -0.343874 -0.941341 0.267611
                    }
                  }
                }
              }
              JOINT rRing1
              {
                OFFSET -3.47877 0.200518 0.597719
                CHANNELS 6 Xposition Yposition Zposition Zrotation Xrotation Yrotation
                JOINT rRing2
                {
                  OFFSET -1.28208 -0.53155 0.44672
                  CHANNELS 6 Xposition Yposition Zposition Zrotation Xrotation Yrotation
                  JOINT rRing3
                  {
                    OFFSET -0.710288 -0.970167 0.4032
                    CHANNELS 6 Xposition Yposition Zposition Zrotation Xrotation Yrotation
                    End Site
                    {
                      OFFSET -0.403228 -0.950952 0.378354
                    }
                  }
                }
              }
              JOINT rPinky1
              {
                OFFSET -3.42483 -0.278904 -0.240415
                CHANNELS 6 Xposition Yposition Zposition Zrotation Xrotation Yrotation
                JOINT rPinky2
                {
                  OFFSET -1.05787 -0.635999 0.156459
                  CHANNELS 6 Xposition Yposition Zposition Zrotation Xrotation Yrotation
                  JOINT rPinky3
                  {
                    OFFSET -0.42815 -0.754232 0.287187
                    CHANNELS 6 Xposition Yposition Zposition Zrotation Xrotation Yrotation
                    End Site
                    {
                      OFFSET -0.235717 -0.725605 0.279416
                    }
                  }
                }
              }
            }
          }
        }
      }
      JOINT lCollar
      {
        OFFSET 1.4963 7.5744 -1.52136
        CHANNELS 6 Xposition Yposition Zposition Zrotation Xrotation Yrotation
        JOINT lShldr
        {
          OFFSET 5.47506 -0.905672 0.485692
          CHANNELS 6 Xposition Yposition Zposition Zrotation Xrotation Yrotation
          JOINT lForeArm
          {
            OFFSET 11.3069 -0.201091 0.618544
            CHANNELS 6 Xposition Yposition Zposition Zrotation Xrotation Yrotation
            JOINT lHand
            {
              OFFSET 9.61414 -0.254739 3.48553
              CHANNELS 6 Xposition Yposition Zposition Zrotation Xrotation Yrotation
              JOINT lThumb1
              {
                OFFSET -0.176263 -0.07068 1.26622
                CHANNELS 6 Xposition Yposition Zposition Zrotation Xrotation Yrotation
                JOINT lThumb2
                {
                  OFFSET 1.04683 -0.546484 1.82182
                  CHANNELS 6 Xposition Yposition Zposition Zrotation Xrotation Yrotation
                  JOINT lThumb3
                  {
                    OFFSET 0.993472 -0.621916 0.655506
                    CHANNELS 6 Xposition Yposition Zposition Zrotation Xrotation Yrotation
                    End Site
                    {
                      OFFSET 0.996134 -0.66263 0.644615
                    }
                  }
                }
              }
              JOINT lIndex1
              {
                OFFSET 2.64253 0.566363 2.4162
                CHANNELS 6 Xposition Yposition Zposition Zrotation Xrotation Yrotation
                JOINT lIndex2
                {
                  OFFSET 1.39394 -0.635138 0.899356
                  CHANNELS 6 Xposition Yposition Zposition Zrotation Xrotation Yrotation
                  JOINT lIndex3
                  {
                    OFFSET 0.622395 -0.856016 0.402182
                    CHANNELS 6 Xposition Yposition Zposition Zrotation Xrotation Yrotation
                    End Site
                    {
                      OFFSET 0.472476 -0.801802 0.34216
                    }
                  }
                }
              }
              JOINT lMid1
              {
                OFFSET 3.20814 0.514427 1.52547
                CHANNELS 6 Xposition Yposition Zposition Zrotation Xrotation Yrotation
                JOINT lMid2
                {
                  OFFSET 1.56545 -0.497974 0.68919
                  CHANNELS 6 Xposition Yposition Zposition Zrotation Xrotation Yrotation
                  JOINT lMid3
                  {
                    OFFSET 0.679943 -1.17582 0.444246
                    CHANNELS 6 Xposition Yposition Zposition Zrotation Xrotation Yrotation
                    End Site
                    {
                      OFFSET 0.343874 -0.941341 0.267611
                    }
                  }
                }
              }
              JOINT lRing1
              {
                OFFSET 3.47877 0.200518 0.597719
                CHANNELS 6 Xposition Yposition Zposition Zrotation Xrotation Yrotation
                JOINT lRing2
                {
                  OFFSET 1.28208 -0.53155 0.44672
                  CHANNELS 6 Xposition Yposition Zposition Zrotation Xrotation Yrotation
                  JOINT lRing3
                  {
                    OFFSET 0.710288 -0.970167 0.4032
                    CHANNELS 6 Xposition Yposition Zposition Zrotation Xrotation Yrotation
                    End Site
                    {
                      OFFSET 0.403228 -0.950952 0.378354
                    }
                  }
                }
              }
              JOINT lPinky1
              {
                OFFSET 3.42483 -0.278904 -0.240415
                CHANNELS 6 Xposition Yposition Zposition Zrotation Xrotation Yrotation
                JOINT lPinky2
                {
                  OFFSET 1.05787 -0.635999 0.156459
                  CHANNELS 6 Xposition Yposition Zposition Zrotation Xrotation Yrotation
                  JOINT lPinky3
                  {
                    OFFSET 0.42815 -0.754232 0.287187
                    CHANNELS 6 Xposition Yposition Zposition Zrotation Xrotation Yrotation
                    End Site
                    {
                      OFFSET 0.235717 -0.725605 0.279416
                    }
                  }
                }
              }
            }
          }
        }
      }
    }
  }
  JOINT rThigh
  {
    OFFSET -4.17848 -1.02486 0.046356
    CHANNELS 6 Xposition Yposition Zposition Zrotation Xrotation Yrotation
    JOINT rShin
    {
      OFFSET 1.27155 -17.465 -0.237699
      CHANNELS 6 Xposition Yposition Zposition Zrotation Xrotation Yrotation
      JOINT rFoot
      {
        OFFSET 0.529163 -17.3815 -1.19582
        CHANNELS 6 Xposition Yposition Zposition Zrotation Xrotation Yrotation
        JOINT rToe
        {
          OFFSET -0.711591 -4.4863 4.0596
          CHANNELS 6 Xposition Yposition Zposition Zrotation Xrotation Yrotation
          End Site
          {
            OFFSET -0.869915 -1.10655 1.99006
          }
        }
      }
    }
  }
  JOINT lThigh
  {
    OFFSET 4.17848 -1.02486 0.046356
    CHANNELS 6 Xposition Yposition Zposition Zrotation Xrotation Yrotation
    JOINT lShin
    {
      OFFSET -1.27155 -17.465 -0.237699
      CHANNELS 6 Xposition Yposition Zposition Zrotation Xrotation Yrotation
      JOINT lFoot
      {
        OFFSET -0.529163 -17.3815 -1.19582
        CHANNELS 6 Xposition Yposition Zposition Zrotation Xrotation Yrotation
        JOINT lToe
        {
          OFFSET 0.711591 -4.4863 4.0596
          CHANNELS 6 Xposition Yposition Zposition Zrotation Xrotation Yrotation
          End Site
          {
            OFFSET 0.869915 -1.10655 1.99006
          }
        }
      }
    }
  }
}
MOTION
Frames:	4
Frame Time:	0.0333333
-29.4767 32.6952 3.66456 -2.74352 -36.3889 112.129 -1.77636e-015 5.99393 0.287273 4.73378 -6.66902 -2.01507 1.77636e-015 6.65865 -0.856112 9.32454 -13.4793 -3.5011 1.33227e-015 8.65624 -1.42685 -0.899695 -13.6116 -22.7509 0 3.80999 -0.190247 31.1149 10.1389 1.28362 -1.4963 7.5744 -1.52136 -7.17818 0.515541 -25.5186 -5.47506 -0.905672 0.485692 51.5778 4.5078 52.1926 -11.3069 -0.201091 0.618544 1.87289 -9.65451 49.2627 -9.61414 -0.254739 3.48553 40.1642 -63.0948 38.5661 0.176263 -0.07068 1.26622 -15.6873 50.412 18.5118 -1.04683 -0.546484 1.82182 -0.515838 0.55765 -1.56014 -0.993472 -0.621916 0.655506 -4.32712 5.93882 -14.9479 -2.64253 0.566363 2.4162 -23.6213 5.47129 -14.5208 -1.39394 -0.635138 0.899356 39.8963 7.70358 -8.81734 -0.622395 -0.856016 0.402182 45.8625 8.24921 -10.4912 -3.20814 0.514427 1.52547 -0.840549 5.94962 -9.82412 -1.56545 -0.497974 0.68919 52.741 10.5331 -13.0891 -0.679943 -1.17582 0.444246 44.4809 9.78114 -10.5176 -3.47877 0.200518 0.597719 16.3707 -0.644865 -5.846 -1.28208 -0.53155 0.44672 37.8363 9.71789 -10.3213 -0.710288 -0.970167 0.4032 39.1354 9.91097 -10.7658 -3.42483 -0.278904 -0.240415 24.5433 -1.9044 -2.26375 -1.05787 -0.635999 0.156459 31.0685 9.47921 -7.8925 -0.42815 -0.754232 0.287187 30.9982 9.46371 -7.86985 1.4963 7.5744 -1.52136 29.7125 -1.10857 -15.7255 5.47506 -0.905672 0.485692 -73.4497 8.62849 -12.7393 11.3069 -0.201091 0.618544 -16.3919 22.501 -21.6908 9.61414 -0.254739 3.48553 32.7487 -0.546493 -45.231 -0.176263 -0.07068 1.26622 11.6805 -4.47538 -6.39673 1.04683 -0.546484 1.82182 -7.87476 -1.33996 -13.793 0.993472 -0.621916 0.655506 -3.98419 -0.921969 -7.02606 2.64253 0.566363 2.4162 -7.67424 6.96177 10.5185 1.39394 -0.635138 0.899356 -9.48847 2.82027 3.99587 0.622395 -0.856016 0.402182 -10.6312 3.11021 4.50138 3.20814 0.514427 1.52547 -5.2498 5.09553 3.2449 1.56545 -0.497974 0.68919 -13.8455 4.46652 6.04289 0.679943 -1.17582 0.444246 -8.4101 2.9077 3.56778 3.47877 0.200518 0.597719 0.384139 -1.2271 -2.20851 1.28208 -0.53155 0.44672 -11.7739 4.27626 5.73287 0.710288 -0.970167 0.4032 -6.54076 2.54193 3.10306 3.42483 -0.278904 -0.240415 2.03108 -2.02097 3.90605 1.05787 -0.635999 0.156459 -8.59207 3.54192 4.0537 0.42815 -0.754232 0.287187 -13.0251 5.08442 6.29304 -4.17848 -1.02486 0.046356 -7.30203 -50.0318 -36.9297 1.27155 -17.465 -0.237699 72.9346 76.2093 -66.4688 0.529163 -17.3815 -1.19582 0.172961 -31.8096 9.00713 -0.711591 -4.4863 4.0596 -1.99039 -14.1597 0.126175 4.17848 -1.02486 0.046356 123.746 -50.5434 87.6093 -1.27155 -17.465 -0.237699 9.8641 76.5909 -15.1923 -0.529163 -17.3815 -1.19582 -9.96636 -1.52124 -14.9531 0.711591 -4.4863 4.0596 -2.81115 -7.76387 0.15185 
-29.4402 32.0163 2.94317 1.54601 -32.9758 111.693 -1.77636e-015 5.99393 0.287273 5.27649 -6.06527 -1.97462 -2.66454e-015 6.65865 -0.856112 10.4291 -12.2845 -3.40579 -1.77636e-015 8.65624 -1.42685 -0.73201 -7.66816 -18.4585 8.88178e-016 3.80999 -0.190247 31.3104 8.50891 3.29224 -1.4963 7.5744 -1.52136 -2.41155 0.269346 -18.947 -5.47506 -0.905672 0.485692 51.4459 3.07501 51.2965 -11.3069 -0.201091 0.618544 2.83874 -6.77308 45.4794 -9.61414 -0.254739 3.48553 33.2025 -55.7963 34.2977 0.176263 -0.07068 1.26622 -15.6873 50.412 18.5118 -1.04683 -0.546484 1.82182 -0.515845 0.557657 -1.56013 -0.993472 -0.621916 0.655506 -4.32713 5.9388 -14.9479 -2.64253 0.566363 2.4162 -23.6213 5.47131 -14.5208 -1.39394 -0.635138 0.899356 39.8963 7.70358 -8.81729 -0.622395 -0.856016 0.402182 45.8625 8.24907 -10.4911 -3.20814 0.514427 1.52547 -0.84056 5.94965 -9.82411 -1.56545 -0.497974 0.68919 52.741 10.5331 -13.0891 -0.679943 -1.17582 0.444246 44.4809 9.78117 -10.5176 -3.47877 0.200518 0.597719 16.3707 -0.644878 -5.84599 -1.28208 -0.53155 0.44672 37.8363 9.71796 -10.3213 -0.710288 -0.970167 0.4032 39.1354 9.91097 -10.7658 -3.42483 -0.278904 -0.240415 24.5433 -1.90439 -2.26375 -1.05787 -0.635999 0.156459 31.0685 9.47904 -7.89248 -0.42815 -0.754232 0.287187 30.9983 9.46354 -7.86992 1.4963 7.5744 -1.52136 29.0454 -0.845951 -14.5857 5.47506 -0.905672 0.485692 -75.4565 10.2348 -15.2137 11.3069 -0.201091 0.618544 -14.545 21.3612 -18.8675 9.61414 -0.254739 3.48553 31.3702 -1.60757 -42.5784 -0.176263 -0.07068 1.26622 11.3163 -3.85686 -5.56487 1.04683 -0.546484 1.82182 -7.55395 -1.32301 -13.2369 0.993472 -0.621916 0.655506 -3.60501 -0.856167 -6.36273 2.64253 0.566363 2.4162 -8.33918 7.07497 10.8577 1.39394 -0.635138 0.899356 -9.50528 2.82462 4.00328 0.622395 -0.856016 0.402182 -10.807 3.15391 4.57958 3.20814 0.514427 1.52547 -5.73763 5.24844 3.48052 1.56545 -0.497974 0.68919 -13.8432 4.4659 6.04183 0.679943 -1.17582 0.444246 -8.55522 2.95264 3.63228 3.47877 0.200518 0.597719 -0.426749 -0.88012 -1.75933 1.28208 -0.53155 0.44672 -11.9549 4.33137 5.82591 0.710288 -0.970167 0.4032 -6.8866 2.66485 3.27312 3.42483 -0.278904 -0.240415 1.04519 -1.65402 3.89291 1.05787 -0.635999 0.156459 -8.91869 3.66226 4.21558 0.42815 -0.754232 0.287187 -12.9744 5.06788 6.26693 -4.17848 -1.02486 0.046356 -9.03342 -46.0683 -34.1692 1.27155 -17.465 -0.237699 87.6263 76.5441 -80.9677 0.529163 -17.3815 -1.19582 -0.333158 -33.871 10.0866 -0.711591 -4.4863 4.0596 -1.90965 -13.5764 0.130425 4.17848 -1.02486 0.046356 118.718 -51.1757 82.9743 -1.27155 -17.465 -0.237699 20.1891 82.3748 -25.1716 -0.529163 -17.3815 -1.19582 -6.62938 -5.39848 -14.6156 0.711591 -4.4863 4.0596 -2.70664 -8.6154 0.153705 
-29.5872 31.2689 2.16334 4.12929 -30.3779 109.735 0 5.99393 0.287273 6.24438 -5.60235 -1.71908 8.88178e-016 6.65865 -0.856112 12.4085 -11.3573 -2.83302 -1.33227e-015 8.65624 -1.42685 -0.559519 -2.24923 -14.0158 -8.88178e-016 3.80999 -0.190247 29.3284 6.36808 5.18917 -1.4963 7.5744 -1.52136 0.869153 -0.000572791 -13.1929 -5.47506 -0.905672 0.485692 51.2974 2.31278 50.774 -11.3069 -0.201091 0.618544 1.97777 -3.99184 39.8872 -9.61414 -0.254739 3.48553 31.6782 -49.6416 35.4175 0.176263 -0.07068 1.26622 -15.6873 50.412 18.5118 -1.04683 -0.546484 1.82182 -0.515871 0.557689 -1.5601 -0.993472 -0.621916 0.655506 -4.32714 5.93883 -14.9479 -2.64253 0.566363 2.4162 -23.6213 5.47132 -14.5207 -1.39394 -0.635138 0.899356 39.8962 7.70358 -8.81729 -0.622395 -0.856016 0.402182 45.8625 8.24907 -10.4911 -3.20814 0.514427 1.52547 -0.840614 5.94974 -9.8241 -1.56545 -0.497974 0.68919 52.741 10.5332 -13.0892 -0.679943 -1.17582 0.444246 44.4808 9.78124 -10.5176 -3.47877 0.200518 0.597719 16.3706 -0.64489 -5.84597 -1.28208 -0.53155 0.44672 37.8363 9.71779 -10.3213 -0.710288 -0.970167 0.4032 39.1354 9.91099 -10.7658 -3.42483 -0.278904 -0.240415 24.5433 -1.90436 -2.26376 -1.05787 -0.635999 0.156459 31.0685 9.47903 -7.89248 -0.42815 -0.754232 0.287187 30.9983 9.46359 -7.86991 1.4963 7.5744 -1.52136 27.7188 -0.896252 -14.8443 5.47506 -0.905672 0.485692 -76.7318 11.1545 -17.5007 11.3069 -0.201091 0.618544 -13.4488 19.6947 -15.7374 9.61414 -0.254739 3.48553 31.6796 -1.96104 -41.5581 -0.176263 -0.07068 1.26622 10.9054 -3.21454 -4.66191 1.04683 -0.546484 1.82182 -7.20691 -1.30117 -12.6349 0.993472 -0.621916 0.655506 -3.19937 -0.780766 -5.65208 2.64253 0.566363 2.4162 -8.97308 7.18035 11.1818 1.39394 -0.635138 0.899356 -9.51418 2.82691 4.00719 0.622395 -0.856016 0.402182 -10.9829 3.19738 4.65791 3.20814 0.514427 1.52547 -6.19216 5.38888 3.70095 1.56545 -0.497974 0.68919 -13.841 4.46531 6.04079 0.679943 -1.17582 0.444246 -8.70039 2.99742 3.6969 3.47877 0.200518 0.597719 -1.21291 -0.545154 -1.31345 1.28208 -0.53155 0.44672 -12.108 4.37778 5.90467 0.710288 -0.970167 0.4032 -7.19723 2.77424 3.42633 3.42483 -0.278904 -0.240415 0.0817856 -1.2908 3.86089 1.05787 -0.635999 0.156459 -9.21127 3.76918 4.36101 0.42815 -0.754232 0.287187 -12.9237 5.05133 6.24082 -4.17848 -1.02486 0.046356 -11.6144 -44.0302 -32.4583 1.27155 -17.465 -0.237699 102.693 75.9689 -95.8253 0.529163 -17.3815 -1.19582 -1.76732 -35.3413 11.1052 -0.711591 -4.4863 4.0596 -1.84022 -13.0737 0.133529 4.17848 -1.02486 0.046356 115.075 -51.304 79.7492 -1.27155 -17.465 -0.237699 63.3008 86.6076 -67.5255 -0.529163 -17.3815 -1.19582 -3.65327 -8.94301 -13.9877 0.711591 -4.4863 4.0596 -2.74928 -8.26802 0.15277 
-29.8636 30.3928 1.3324 7.63475 -27.2642 106.996 0 5.99393 0.287273 7.14023 -4.38866 -1.22728 0 6.65865 -0.856112 14.2491 -8.89546 -1.90464 0 8.65624 -1.42685 -0.392606 2.69337 -9.75353 -4.44089e-016 3.80999 -0.190247 26.7746 4.2934 6.43073 -1.4963 7.5744 -1.52136 3.83556 -0.313638 -6.20925 -5.47506 -0.905672 0.485692 50.3748 0.645486 49.1941 -11.3069 -0.201091 0.618544 0.983378 -2.74899 34.5774 -9.61414 -0.254739 3.48553 30.9082 -43.911 36.7463 0.176263 -0.07068 1.26622 -15.6873 50.412 18.5118 -1.04683 -0.546484 1.82182 -0.515918 0.557745 -1.56005 -0.993472 -0.621916 0.655506 -4.32715 5.93886 -14.9479 -2.64253 0.566363 2.4162 -23.6213 5.47139 -14.5207 -1.39394 -0.635138 0.899356 39.8962 7.7036 -8.8173 -0.622395 -0.856016 0.402182 45.8625 8.24906 -10.4911 -3.20814 0.514427 1.52547 -0.840543 5.94956 -9.82411 -1.56545 -0.497974 0.68919 52.741 10.533 -13.0891 -0.679943 -1.17582 0.444246 44.4808 9.78133 -10.5176 -3.47877 0.200518 0.597719 16.3707 -0.644856 -5.84599 -1.28208 -0.53155 0.44672 37.8362 9.71779 -10.3213 -0.710288 -0.970167 0.4032 39.1354 9.91099 -10.7658 -3.42483 -0.278904 -0.240415 24.5433 -1.90428 -2.2638 -1.05787 -0.635999 0.156459 31.0685 9.47904 -7.89248 -0.42815 -0.754232 0.287187 30.9983 9.46359 -7.86991 1.4963 7.5744 -1.52136 27.146 -0.966812 -15.1702 5.47506 -0.905672 0.485692 -77.0666 12.9205 -21.3818 11.3069 -0.201091 0.618544 -12.3513 19.2923 -12.2563 9.61414 -0.254739 3.48553 32.2827 -0.654422 -40.0666 -0.176263 -0.07068 1.26622 10.4546 -2.55396 -3.70016 1.04683 -0.546484 1.82182 -6.83769 -1.27392 -11.9943 0.993472 -0.621916 0.655506 -2.77274 -0.691808 -4.88725 2.64253 0.566363 2.4162 -9.57546 7.27779 11.4904 1.39394 -0.635138 0.899356 -9.52307 2.82921 4.01112 0.622395 -0.856016 0.402182 -11.1307 3.23367 4.72382 3.20814 0.514427 1.52547 -6.61415 5.51752 3.90635 1.56545 -0.497974 0.68919 -13.8333 4.46328 6.03718 0.679943 -1.17582 0.444246 -8.81515 3.03269 3.74805 3.47877 0.200518 0.597719 -1.97215 -0.22297 -0.873082 1.28208 -0.53155 0.44672 -12.2611 4.42398 5.98358 0.710288 -0.970167 0.4032 -7.45852 2.86555 3.55556 3.42483 -0.278904 -0.240415 -0.855457 -0.933359 3.81223 1.05787 -0.635999 0.156459 -9.47167 3.86362 4.49079 0.42815 -0.754232 0.287187 -12.873 5.03476 6.21476 -4.17848 -1.02486 0.046356 -14.5766 -41.8649 -29.9543 1.27155 -17.465 -0.237699 117.413 74.3272 -110.322 0.529163 -17.3815 -1.19582 -3.54369 -36.4962 12.4918 -0.711591 -4.4863 4.0596 -1.62928 -11.539 0.13899 4.17848 -1.02486 0.046356 109.618 -50.2177 75.0367 -1.27155 -17.465 -0.237699 140.505 84.7402 -144.453 -0.529163 -17.3815 -1.19582 -0.842471 -12.4096 -13.1811 0.711591 -4.4863 4.0596 -2.69986 -8.67044 0.1539 
